HIERARCHY
ROOT root
{
	OFFSET 0.000000 0.000000 0.000000
	CHANNELS 6 Xposition Yposition Zposition Zrotation Yrotation Xrotation
	JOINT lhip
	{
		OFFSET 0.058581 -0.082280 -0.017664
		CHANNELS 3 Zrotation Yrotation Xrotation
		JOINT lknee
		{
			OFFSET 0.043451 -0.386469 0.008037
			CHANNELS 3 Zrotation Yrotation Xrotation
			JOINT lankle
			{
				OFFSET -0.014790 -0.426874 -0.037428
				CHANNELS 3 Zrotation Yrotation Xrotation
				JOINT ltoe
				{
					OFFSET 0.041054 -0.060286 0.122042
					CHANNELS 3 Zrotation Yrotation Xrotation
					End Site
					{
						OFFSET 0.000000 0.000000 0.000000
					}
				}
			}
		}
	}
	JOINT rhip
	{
		OFFSET -0.060310 -0.090513 -0.013543
		CHANNELS 3 Zrotation Yrotation Xrotation
		JOINT rknee
		{
			OFFSET -0.043257 -0.383688 -0.004843
			CHANNELS 3 Zrotation Yrotation Xrotation
			JOINT rankle
			{
				OFFSET 0.019056 -0.420046 -0.034562
				CHANNELS 3 Zrotation Yrotation Xrotation
				JOINT rtoe
				{
					OFFSET -0.034840 -0.062106 0.130323
					CHANNELS 3 Zrotation Yrotation Xrotation
					End Site
					{
						OFFSET 0.000000 0.000000 0.000000
					}
				}
			}
		}
	}
	JOINT lowerback
	{
		OFFSET 0.004439 0.124404 -0.038385
		CHANNELS 3 Zrotation Yrotation Xrotation
		JOINT upperback
		{
			OFFSET 0.004488 0.137956 0.026820
			CHANNELS 3 Zrotation Yrotation Xrotation
			JOINT chest
			{
				OFFSET -0.002265 0.056032 0.002855
				CHANNELS 3 Zrotation Yrotation Xrotation
				JOINT lowerneck
				{
					OFFSET -0.013390 0.211636 -0.033468
					CHANNELS 3 Zrotation Yrotation Xrotation
					JOINT upperneck
					{
						OFFSET 0.010113 0.088937 0.050410
						CHANNELS 3 Zrotation Yrotation Xrotation
						End Site
						{
							OFFSET 0.000000 0.000000 0.000000
						}
					}
				}
				JOINT lclavicle
				{
					OFFSET 0.071702 0.114000 -0.018898
					CHANNELS 3 Zrotation Yrotation Xrotation
					JOINT lshoulder
					{
						OFFSET 0.122921 0.045205 -0.019046
						CHANNELS 3 Zrotation Yrotation Xrotation
						JOINT lelbow
						{
							OFFSET 0.255332 -0.015649 -0.022946
							CHANNELS 3 Zrotation Yrotation Xrotation
							JOINT lwrist
							{
								OFFSET 0.265709 0.012698 -0.007375
								CHANNELS 3 Zrotation Yrotation Xrotation
								End Site
								{
									OFFSET 0.000000 0.000000 0.000000
								}
							}
						}
					}
				}
				JOINT rclavicle
				{
					OFFSET -0.082954 0.112472 -0.023707
					CHANNELS 3 Zrotation Yrotation Xrotation
					JOINT rshoulder
					{
						OFFSET -0.113228 0.046853 -0.008472
						CHANNELS 3 Zrotation Yrotation Xrotation
						JOINT relbow
						{
							OFFSET -0.260127 -0.014369 -0.031269
							CHANNELS 3 Zrotation Yrotation Xrotation
							JOINT rwrist
							{
								OFFSET -0.269108 0.006794 -0.006027
								CHANNELS 3 Zrotation Yrotation Xrotation
								End Site
								{
									OFFSET 0.000000 0.000000 0.000000
								}
							}
						}
					}
				}
			}
		}
	}
}
MOTION
Frames: 5
Frame Time: 0.033333
0.094398 0.406957 1.020405 -63.619896 2.042125 95.360096 8.448203 7.100839 -0.574337 -2.905512 -9.835101 -1.588797 -1.583736 18.779056 -14.263345 0.000000 -0.000000 0.000000 -3.700435 -6.596835 -7.077898 6.881764 4.093315 7.631570 7.814002 -14.004456 -16.927907 0.000000 -0.000000 0.000000 1.285365 0.251600 2.828910 -2.394507 -1.609925 -10.399904 0.710178 2.471463 -1.233783 -3.467785 12.951105 1.647931 -5.892773 14.159906 3.254572 12.053169 12.274179 -13.078087 -16.853458 -6.056894 -20.982251 16.891598 1.738729 -33.997848 61.227958 -23.059919 -5.644841 -12.099726 -10.977242 -14.368306 6.989780 3.455658 -23.712022 -8.737178 -1.937210 -34.885581 -54.558929 19.739475 2.333521 
0.095362 0.407188 1.019817 -63.507181 2.043211 95.453892 8.413561 7.182539 -0.790195 -2.838486 -9.953017 -1.649036 -1.552581 18.635887 -14.336632 0.000000 -0.000000 0.000000 -3.677452 -6.682579 -7.378004 6.815239 4.013106 7.898539 7.788374 -13.871673 -16.984862 0.000000 -0.000000 0.000000 1.287829 0.274866 2.828071 -2.422312 -1.529358 -10.362059 0.674639 2.354272 -1.299720 -3.227398 12.929455 1.399540 -5.759226 13.998924 3.670475 11.375313 12.637838 -12.861973 -17.609659 -6.118266 -21.202263 17.006608 1.730086 -34.331128 60.673911 -22.471668 -5.297433 -11.047585 -11.408673 -14.584676 7.499274 3.573338 -23.690232 -8.741129 -2.307550 -35.565488 -54.211498 19.230570 2.524814 
0.096089 0.406864 1.019444 -63.413204 2.005135 95.526988 8.322745 7.228233 -0.913596 -2.793976 -10.034734 -1.692946 -1.451388 18.580585 -14.294624 0.000000 -0.000000 0.000000 -3.793329 -6.894735 -7.564610 6.876033 3.847835 8.073328 7.764698 -13.612011 -17.074732 0.000000 -0.000000 0.000000 1.234342 0.269602 2.725815 -2.383966 -1.487074 -10.200723 0.664698 2.393908 -1.435866 -3.040357 13.029225 1.047348 -5.706915 13.796576 4.115236 10.670624 13.105747 -13.161536 -18.257993 -6.349631 -21.181197 17.150002 2.046647 -34.180815 60.633275 -21.918159 -5.272276 -10.321331 -11.827023 -14.370247 8.029800 3.543231 -23.914988 -8.642542 -2.558939 -35.793541 -54.599546 18.569115 2.101711 
0.096983 0.406640 1.019199 -63.253780 1.953896 95.658398 8.267403 7.248074 -1.181957 -2.904737 -9.837636 -1.598748 -1.398248 18.385875 -14.205755 0.000000 -0.000000 0.000000 -3.903631 -6.946883 -7.768049 6.914653 3.666223 8.159122 7.715884 -13.579801 -17.078770 0.000000 -0.000000 0.000000 1.213563 0.242062 2.683645 -2.405916 -1.503059 -10.056555 0.683482 2.261882 -1.675630 -3.084764 12.984234 0.720453 -5.701376 14.108310 4.115202 9.817575 13.226896 -12.850399 -18.489266 -5.970764 -21.512317 17.277002 1.919543 -35.187108 61.079767 -21.984388 -4.875672 -9.602165 -12.023881 -14.173397 8.497345 3.350026 -24.191283 -8.574763 -2.292447 -36.788863 -55.585071 18.625063 2.457888 
0.097881 0.406382 1.018626 -63.132364 1.978097 95.856693 8.332040 7.243908 -1.428351 -3.031033 -9.967525 -1.685243 -1.544655 18.293465 -14.152159 0.000000 -0.000000 0.000000 -3.916390 -6.945548 -7.928432 6.976626 3.639053 7.991999 7.644048 -13.713012 -16.942132 0.000000 -0.000000 0.000000 1.253697 0.088159 2.628108 -2.389342 -1.548795 -9.927368 0.666783 2.257897 -1.885100 -3.167584 12.787459 0.306349 -5.711797 14.336737 4.193130 9.038530 13.394914 -12.618912 -18.675287 -5.416610 -21.534789 17.232810 1.481538 -35.466542 60.512411 -21.486711 -4.696588 -8.837595 -11.924435 -14.083758 8.664005 3.277516 -24.400567 -8.506493 -2.721533 -37.315391 -54.494111 18.171083 2.743296 
